<svg width="640" height="176" viewBox="0 0 640 176" fill="none" xmlns="http://www.w3.org/2000/svg">
<path d="M0 12C0 5.37258 5.37258 0 12 0H628C634.627 0 640 5.37258 640 12V164C640 170.627 634.627 176 628 176H12C5.37259 176 0 170.627 0 164V12Z" fill="url(#paint0_linear_6328_1531)"/>
<path d="M226.638 84.05C224.073 81.6959 223.325 76.75 224.393 73.167C226.246 75.4259 228.813 76.1418 231.472 76.5454C235.577 77.169 239.609 76.9358 243.422 75.052C243.858 74.8365 244.261 74.5492 244.738 74.2591C245.096 75.3011 245.189 76.3533 245.064 77.4243C244.76 80.0326 243.467 82.0476 241.411 83.5746C240.589 84.1857 239.719 84.7317 238.87 85.308C236.261 87.0778 235.555 89.1538 236.535 92.1736C236.559 92.2472 236.579 92.3207 236.632 92.5002C235.3 91.9017 234.327 91.0302 233.586 89.8845C232.803 88.675 232.43 87.3372 232.411 85.89C232.401 85.1854 232.401 84.4747 232.307 83.7804C232.076 82.0875 231.285 81.3294 229.793 81.2855C228.263 81.241 227.052 82.1907 226.731 83.6869C226.707 83.8015 226.671 83.9149 226.636 84.0483L226.638 84.05Z" fill="url(#paint1_linear_6328_1531)"/>
<path d="M212 72.5694C212 72.5694 219.594 68.8551 227.21 68.8551L232.952 51.0128C233.167 50.15 233.795 49.5635 234.503 49.5635C235.212 49.5635 235.84 50.15 236.055 51.0128L241.797 68.8551C250.816 68.8551 257.007 72.5694 257.007 72.5694C257.007 72.5694 244.107 37.2858 244.082 37.215C243.712 36.1719 243.087 35.5 242.244 35.5H226.764C225.922 35.5 225.322 36.1719 224.926 37.215C224.899 37.2845 212 72.5694 212 72.5694Z" fill="white"/>
<path d="M292.071 61.2203C292.071 64.3469 288.198 66.2141 282.835 66.2141C279.344 66.2141 278.11 65.3456 278.11 63.5218C278.11 61.6111 279.642 60.6992 283.132 60.6992C286.282 60.6992 288.964 60.7426 292.071 61.1334V61.2203ZM292.114 57.3555C290.198 56.9212 287.304 56.6607 283.856 56.6607C273.81 56.6607 269.086 59.049 269.086 64.6074C269.086 70.3829 272.321 72.5977 279.812 72.5977C286.155 72.5977 290.453 70.9909 292.029 67.0392H292.284C292.241 67.9946 292.199 68.9499 292.199 69.6881C292.199 71.7291 292.539 71.9028 294.199 71.9028H302.031C301.605 70.6869 301.35 67.2563 301.35 64.3034C301.35 61.1334 301.478 58.7451 301.478 55.5316C301.478 48.9745 297.562 44.8057 285.303 44.8057C280.025 44.8057 274.151 45.7176 269.682 47.0638C270.107 48.8442 270.703 52.4484 271.001 54.7934C274.875 52.9695 280.366 52.1879 284.622 52.1879C290.496 52.1879 292.114 53.5341 292.114 56.2698V57.3555Z" fill="white"/>
<path d="M313.603 63.0437C312.539 63.1739 311.091 63.1739 309.601 63.1739C308.027 63.1739 306.579 63.1305 305.6 63.0002C305.6 63.3476 305.558 63.7384 305.558 64.0858C305.558 69.514 309.091 72.6838 321.52 72.6838C333.225 72.6838 337.013 69.5574 337.013 64.0424C337.013 58.8314 334.502 56.2694 323.393 55.7049C314.752 55.314 313.986 54.3587 313.986 53.2731C313.986 52.0138 315.092 51.3624 320.881 51.3624C326.883 51.3624 328.5 52.1874 328.5 53.9245V54.3152C329.352 54.2718 330.884 54.2284 332.459 54.2284C333.949 54.2284 335.566 54.2718 336.503 54.3587C336.503 53.9678 336.545 53.6205 336.545 53.3165C336.545 46.933 331.267 44.8486 321.051 44.8486C309.559 44.8486 305.685 47.6713 305.685 53.1862C305.685 58.1366 308.793 61.2198 319.817 61.6975C327.947 61.958 328.841 62.87 328.841 64.1293C328.841 65.4754 327.522 66.0834 321.818 66.0834C315.263 66.0834 313.603 65.1715 313.603 63.3042V63.0437Z" fill="white"/>
<path d="M351.063 40.1592C347.956 43.0687 342.38 45.9781 339.272 46.7598C339.315 48.3665 339.315 51.3194 339.315 52.9261L342.167 52.9695C342.124 56.0527 342.081 59.7872 342.081 62.2625C342.081 68.0379 345.103 72.3805 354.51 72.3805C358.469 72.3805 361.108 71.9462 364.386 71.2514C364.045 69.1235 363.662 65.8667 363.534 63.3915C361.577 64.0429 359.108 64.3903 356.383 64.3903C352.595 64.3903 351.063 63.3481 351.063 60.3518C351.063 57.7463 351.063 55.3144 351.105 53.0564C355.958 53.0998 360.81 53.1866 363.662 53.2735C363.619 51.0154 363.704 47.7585 363.832 45.5873C359.704 45.6742 355.064 45.7176 351.233 45.7176C351.275 43.8069 351.318 41.9831 351.361 40.1592H351.063Z" fill="white"/>
<path d="M376.485 51.6234C376.527 49.3653 376.57 47.4547 376.613 45.5873H368.057C368.184 49.3219 368.184 53.1433 368.184 58.7451C368.184 64.3469 368.142 68.2117 368.057 71.9028H377.847C377.676 69.2973 377.634 64.9114 377.634 61.1769C377.634 55.2711 380.018 53.5775 385.423 53.5775C387.935 53.5775 389.723 53.8815 391.297 54.446C391.34 52.2314 391.766 47.9323 392.021 46.0216C390.403 45.544 388.616 45.24 386.445 45.24C381.805 45.1965 378.4 47.1072 376.825 51.6668L376.485 51.6234Z" fill="white"/>
<path d="M419.104 58.5712C419.104 63.3046 415.699 65.5192 410.336 65.5192C405.016 65.5192 401.61 63.4348 401.61 58.5712C401.61 53.7076 405.058 51.8838 410.336 51.8838C415.657 51.8838 419.104 53.838 419.104 58.5712ZM428 58.3541C428 48.9309 420.679 44.7188 410.336 44.7188C399.95 44.7188 392.885 48.9309 392.885 58.3541C392.885 67.7339 399.482 72.7714 410.294 72.7714C421.19 72.7714 428 67.7339 428 58.3541Z" fill="white"/>
<path d="M199.655 118.182H192.024C191.97 117.55 191.826 116.978 191.591 116.464C191.366 115.949 191.05 115.507 190.644 115.138C190.247 114.759 189.765 114.47 189.196 114.272C188.628 114.064 187.983 113.961 187.262 113.961C185.999 113.961 184.93 114.267 184.055 114.881C183.189 115.494 182.531 116.373 182.08 117.519C181.638 118.664 181.417 120.04 181.417 121.645C181.417 123.341 181.642 124.762 182.093 125.907C182.553 127.044 183.216 127.901 184.082 128.478C184.948 129.046 185.99 129.33 187.208 129.33C187.902 129.33 188.524 129.245 189.075 129.073C189.625 128.893 190.103 128.636 190.509 128.302C190.915 127.968 191.244 127.567 191.496 127.098C191.758 126.62 191.934 126.083 192.024 125.488L199.655 125.542C199.565 126.715 199.236 127.91 198.667 129.127C198.099 130.336 197.292 131.455 196.245 132.483C195.208 133.502 193.923 134.323 192.389 134.945C190.856 135.568 189.075 135.879 187.045 135.879C184.502 135.879 182.22 135.333 180.199 134.242C178.188 133.15 176.596 131.545 175.423 129.425C174.259 127.305 173.678 124.712 173.678 121.645C173.678 118.561 174.273 115.963 175.464 113.852C176.654 111.733 178.26 110.132 180.28 109.049C182.301 107.958 184.556 107.412 187.045 107.412C188.795 107.412 190.405 107.651 191.875 108.129C193.346 108.607 194.635 109.306 195.745 110.226C196.854 111.137 197.747 112.26 198.424 113.595C199.1 114.93 199.511 116.459 199.655 118.182ZM209.645 107.791V135.5H202.176V107.791H209.645ZM218.241 135.825C216.915 135.825 215.742 135.608 214.723 135.175C213.713 134.733 212.919 134.066 212.342 133.173C211.764 132.28 211.476 131.143 211.476 129.763C211.476 128.627 211.67 127.657 212.057 126.854C212.445 126.043 212.987 125.38 213.681 124.866C214.376 124.351 215.183 123.959 216.103 123.688C217.032 123.418 218.033 123.242 219.107 123.161C220.27 123.071 221.204 122.962 221.907 122.836C222.62 122.701 223.134 122.516 223.45 122.281C223.765 122.038 223.923 121.718 223.923 121.321V121.267C223.923 120.725 223.716 120.311 223.301 120.022C222.886 119.733 222.354 119.589 221.704 119.589C220.992 119.589 220.41 119.747 219.959 120.062C219.517 120.369 219.251 120.843 219.161 121.483H212.287C212.378 120.22 212.779 119.057 213.492 117.992C214.213 116.919 215.264 116.062 216.644 115.422C218.024 114.772 219.747 114.448 221.812 114.448C223.301 114.448 224.636 114.623 225.817 114.975C226.999 115.318 228.005 115.801 228.834 116.423C229.664 117.036 230.296 117.758 230.729 118.588C231.171 119.409 231.392 120.301 231.392 121.267V135.5H224.41V132.578H224.248C223.833 133.353 223.328 133.98 222.733 134.458C222.146 134.936 221.474 135.284 220.717 135.5C219.968 135.716 219.143 135.825 218.241 135.825ZM220.676 131.116C221.244 131.116 221.776 130.999 222.272 130.765C222.778 130.53 223.188 130.192 223.504 129.75C223.819 129.308 223.977 128.771 223.977 128.14V126.408C223.779 126.489 223.567 126.566 223.341 126.638C223.125 126.71 222.89 126.778 222.638 126.841C222.394 126.904 222.133 126.963 221.853 127.017C221.582 127.071 221.298 127.121 221.001 127.166C220.423 127.256 219.95 127.405 219.58 127.612C219.219 127.811 218.949 128.059 218.768 128.356C218.597 128.645 218.511 128.97 218.511 129.33C218.511 129.908 218.714 130.35 219.12 130.656C219.526 130.963 220.045 131.116 220.676 131.116ZM252.956 121.483H246.083C246.047 121.059 245.898 120.694 245.636 120.387C245.375 120.081 245.037 119.846 244.622 119.684C244.216 119.512 243.765 119.427 243.269 119.427C242.628 119.427 242.078 119.544 241.618 119.778C241.158 120.013 240.932 120.347 240.941 120.78C240.932 121.086 241.063 121.37 241.334 121.632C241.613 121.894 242.15 122.096 242.944 122.241L247.165 122.998C249.294 123.386 250.877 124.04 251.914 124.96C252.96 125.871 253.488 127.093 253.497 128.627C253.488 130.106 253.046 131.391 252.171 132.483C251.305 133.565 250.119 134.404 248.613 134.999C247.116 135.586 245.406 135.879 243.485 135.879C240.31 135.879 237.825 135.229 236.03 133.931C234.244 132.632 233.248 130.918 233.04 128.789H240.454C240.554 129.448 240.878 129.957 241.429 130.318C241.988 130.67 242.691 130.846 243.539 130.846C244.225 130.846 244.788 130.728 245.23 130.494C245.681 130.259 245.911 129.926 245.92 129.493C245.911 129.096 245.713 128.78 245.325 128.546C244.946 128.311 244.351 128.122 243.539 127.977L239.859 127.328C237.739 126.958 236.152 126.255 235.097 125.217C234.041 124.18 233.518 122.845 233.527 121.213C233.518 119.769 233.897 118.547 234.664 117.546C235.439 116.536 236.544 115.769 237.978 115.246C239.422 114.714 241.131 114.448 243.106 114.448C246.11 114.448 248.478 115.07 250.209 116.315C251.95 117.559 252.866 119.282 252.956 121.483ZM274.355 121.483H267.481C267.445 121.059 267.297 120.694 267.035 120.387C266.773 120.081 266.435 119.846 266.02 119.684C265.614 119.512 265.163 119.427 264.667 119.427C264.027 119.427 263.477 119.544 263.017 119.778C262.557 120.013 262.331 120.347 262.34 120.78C262.331 121.086 262.462 121.37 262.732 121.632C263.012 121.894 263.549 122.096 264.343 122.241L268.564 122.998C270.693 123.386 272.276 124.04 273.313 124.96C274.359 125.871 274.887 127.093 274.896 128.627C274.887 130.106 274.445 131.391 273.57 132.483C272.704 133.565 271.518 134.404 270.012 134.999C268.514 135.586 266.805 135.879 264.884 135.879C261.709 135.879 259.224 135.229 257.429 133.931C255.643 132.632 254.646 130.918 254.439 128.789H261.853C261.952 129.448 262.277 129.957 262.827 130.318C263.386 130.67 264.09 130.846 264.938 130.846C265.623 130.846 266.187 130.728 266.629 130.494C267.08 130.259 267.31 129.926 267.319 129.493C267.31 129.096 267.112 128.78 266.724 128.546C266.345 128.311 265.75 128.122 264.938 127.977L261.258 127.328C259.138 126.958 257.551 126.255 256.495 125.217C255.44 124.18 254.917 122.845 254.926 121.213C254.917 119.769 255.296 118.547 256.062 117.546C256.838 116.536 257.943 115.769 259.377 115.246C260.82 114.714 262.53 114.448 264.505 114.448C267.509 114.448 269.876 115.07 271.608 116.315C273.349 117.559 274.264 119.282 274.355 121.483ZM298.176 116.45C298.104 115.548 297.766 114.844 297.162 114.339C296.566 113.834 295.66 113.582 294.442 113.582C293.666 113.582 293.03 113.676 292.534 113.866C292.047 114.046 291.686 114.294 291.452 114.61C291.217 114.926 291.096 115.286 291.087 115.692C291.069 116.026 291.127 116.328 291.263 116.599C291.407 116.86 291.632 117.099 291.939 117.316C292.246 117.523 292.638 117.713 293.116 117.884C293.594 118.056 294.162 118.209 294.821 118.344L297.094 118.831C298.627 119.156 299.94 119.584 301.031 120.117C302.122 120.649 303.015 121.276 303.71 121.997C304.405 122.71 304.914 123.513 305.239 124.406C305.573 125.299 305.744 126.273 305.753 127.328C305.744 129.15 305.288 130.692 304.386 131.955C303.484 133.218 302.195 134.179 300.517 134.837C298.848 135.495 296.841 135.825 294.496 135.825C292.088 135.825 289.986 135.468 288.191 134.756C286.405 134.043 285.016 132.947 284.024 131.468C283.041 129.98 282.545 128.077 282.536 125.759H289.68C289.725 126.606 289.937 127.319 290.315 127.896C290.694 128.474 291.226 128.911 291.912 129.209C292.607 129.506 293.432 129.655 294.388 129.655C295.191 129.655 295.863 129.556 296.404 129.357C296.945 129.159 297.355 128.884 297.635 128.532C297.915 128.18 298.059 127.779 298.068 127.328C298.059 126.904 297.919 126.534 297.649 126.219C297.387 125.894 296.954 125.605 296.35 125.353C295.745 125.091 294.929 124.848 293.901 124.622L291.141 124.027C288.687 123.495 286.753 122.606 285.336 121.361C283.929 120.108 283.23 118.398 283.239 116.234C283.23 114.475 283.699 112.937 284.646 111.62C285.603 110.294 286.924 109.261 288.611 108.522C290.306 107.782 292.25 107.412 294.442 107.412C296.679 107.412 298.614 107.786 300.246 108.535C301.879 109.284 303.137 110.339 304.021 111.701C304.914 113.054 305.365 114.637 305.374 116.45H298.176ZM315.191 123.81V135.5H307.723V107.791H314.921V118.669H315.137C315.606 117.343 316.386 116.31 317.478 115.571C318.569 114.822 319.882 114.448 321.415 114.448C322.885 114.448 324.162 114.781 325.244 115.449C326.335 116.116 327.179 117.036 327.774 118.209C328.378 119.381 328.676 120.725 328.667 122.241V135.5H321.198V123.81C321.208 122.782 320.95 121.975 320.427 121.388C319.913 120.802 319.178 120.509 318.222 120.509C317.618 120.509 317.085 120.644 316.625 120.915C316.174 121.176 315.823 121.555 315.57 122.051C315.327 122.538 315.2 123.125 315.191 123.81ZM341.366 135.879C339.111 135.879 337.181 135.432 335.575 134.539C333.97 133.637 332.738 132.384 331.882 130.778C331.025 129.164 330.596 127.292 330.596 125.163C330.596 123.035 331.025 121.167 331.882 119.562C332.738 117.947 333.97 116.694 335.575 115.801C337.181 114.899 339.111 114.448 341.366 114.448C343.621 114.448 345.551 114.899 347.157 115.801C348.762 116.694 349.993 117.947 350.85 119.562C351.707 121.167 352.136 123.035 352.136 125.163C352.136 127.292 351.707 129.164 350.85 130.778C349.993 132.384 348.762 133.637 347.157 134.539C345.551 135.432 343.621 135.879 341.366 135.879ZM341.42 130.359C342.051 130.359 342.597 130.147 343.057 129.723C343.517 129.299 343.873 128.694 344.126 127.91C344.379 127.125 344.505 126.191 344.505 125.109C344.505 124.018 344.379 123.084 344.126 122.308C343.873 121.524 343.517 120.919 343.057 120.495C342.597 120.071 342.051 119.86 341.42 119.86C340.753 119.86 340.18 120.071 339.702 120.495C339.224 120.919 338.858 121.524 338.606 122.308C338.353 123.084 338.227 124.018 338.227 125.109C338.227 126.191 338.353 127.125 338.606 127.91C338.858 128.694 339.224 129.299 339.702 129.723C340.18 130.147 340.753 130.359 341.42 130.359ZM354.166 135.5V114.718H361.418V118.669H361.635C362.014 117.208 362.613 116.139 363.434 115.462C364.264 114.786 365.234 114.448 366.343 114.448C366.668 114.448 366.988 114.475 367.304 114.529C367.629 114.574 367.94 114.642 368.237 114.732V121.104C367.868 120.978 367.412 120.883 366.871 120.82C366.33 120.757 365.865 120.725 365.477 120.725C364.747 120.725 364.088 120.892 363.502 121.226C362.925 121.551 362.469 122.011 362.135 122.606C361.802 123.192 361.635 123.882 361.635 124.676V135.5H354.166ZM382.935 114.718V120.13H369.243V114.718H382.935ZM371.895 109.739H379.363V128.816C379.363 129.105 379.413 129.348 379.512 129.547C379.612 129.736 379.765 129.881 379.972 129.98C380.18 130.07 380.446 130.115 380.771 130.115C380.996 130.115 381.258 130.088 381.555 130.034C381.862 129.98 382.087 129.935 382.232 129.899L383.314 135.148C382.98 135.247 382.502 135.369 381.88 135.514C381.267 135.658 380.536 135.753 379.688 135.798C377.974 135.888 376.536 135.712 375.372 135.27C374.209 134.819 373.334 134.111 372.747 133.146C372.161 132.181 371.877 130.972 371.895 129.52V109.739ZM394.718 135.879C392.499 135.879 390.587 135.455 388.981 134.607C387.384 133.75 386.153 132.523 385.287 130.927C384.43 129.321 384.002 127.4 384.002 125.163C384.002 123.016 384.435 121.14 385.301 119.535C386.167 117.929 387.389 116.68 388.967 115.787C390.546 114.894 392.409 114.448 394.555 114.448C396.125 114.448 397.545 114.691 398.817 115.178C400.089 115.665 401.176 116.373 402.078 117.302C402.98 118.222 403.674 119.341 404.161 120.658C404.649 121.975 404.892 123.458 404.892 125.109V126.841H386.329V122.728H398.019C398.01 122.133 397.857 121.609 397.559 121.158C397.27 120.698 396.878 120.342 396.382 120.09C395.895 119.828 395.34 119.697 394.718 119.697C394.113 119.697 393.559 119.828 393.053 120.09C392.548 120.342 392.142 120.694 391.836 121.145C391.538 121.596 391.38 122.124 391.362 122.728V127.166C391.362 127.833 391.502 128.428 391.782 128.952C392.061 129.475 392.463 129.885 392.986 130.183C393.509 130.48 394.14 130.629 394.88 130.629C395.394 130.629 395.863 130.557 396.287 130.413C396.72 130.268 397.09 130.061 397.397 129.79C397.703 129.511 397.929 129.177 398.073 128.789H404.892C404.658 130.232 404.103 131.486 403.228 132.55C402.353 133.606 401.194 134.427 399.751 135.013C398.317 135.59 396.639 135.879 394.718 135.879ZM414.408 123.81V135.5H406.94V114.718H414.029V118.669H414.246C414.697 117.352 415.491 116.319 416.627 115.571C417.773 114.822 419.108 114.448 420.632 114.448C422.102 114.448 423.378 114.786 424.461 115.462C425.552 116.13 426.396 117.05 426.991 118.222C427.595 119.395 427.893 120.734 427.884 122.241V135.5H420.415V123.81C420.424 122.782 420.163 121.975 419.631 121.388C419.108 120.802 418.377 120.509 417.439 120.509C416.825 120.509 416.289 120.644 415.829 120.915C415.378 121.176 415.031 121.555 414.787 122.051C414.543 122.538 414.417 123.125 414.408 123.81ZM440.529 135.879C438.31 135.879 436.398 135.455 434.792 134.607C433.196 133.75 431.964 132.523 431.098 130.927C430.241 129.321 429.813 127.4 429.813 125.163C429.813 123.016 430.246 121.14 431.112 119.535C431.978 117.929 433.2 116.68 434.778 115.787C436.357 114.894 438.22 114.448 440.366 114.448C441.936 114.448 443.356 114.691 444.628 115.178C445.9 115.665 446.987 116.373 447.889 117.302C448.791 118.222 449.485 119.341 449.972 120.658C450.46 121.975 450.703 123.458 450.703 125.109V126.841H432.14V122.728H443.83C443.821 122.133 443.668 121.609 443.37 121.158C443.081 120.698 442.689 120.342 442.193 120.09C441.706 119.828 441.151 119.697 440.529 119.697C439.924 119.697 439.37 119.828 438.865 120.09C438.359 120.342 437.953 120.694 437.647 121.145C437.349 121.596 437.191 122.124 437.173 122.728V127.166C437.173 127.833 437.313 128.428 437.593 128.952C437.872 129.475 438.274 129.885 438.797 130.183C439.32 130.48 439.951 130.629 440.691 130.629C441.205 130.629 441.674 130.557 442.098 130.413C442.531 130.268 442.901 130.061 443.208 129.79C443.514 129.511 443.74 129.177 443.884 128.789H450.703C450.469 130.232 449.914 131.486 449.039 132.55C448.164 133.606 447.005 134.427 445.562 135.013C444.128 135.59 442.45 135.879 440.529 135.879ZM452.751 135.5V114.718H460.003V118.669H460.219C460.598 117.208 461.198 116.139 462.019 115.462C462.848 114.786 463.818 114.448 464.928 114.448C465.252 114.448 465.572 114.475 465.888 114.529C466.213 114.574 466.524 114.642 466.822 114.732V121.104C466.452 120.978 465.996 120.883 465.455 120.82C464.914 120.757 464.45 120.725 464.062 120.725C463.331 120.725 462.673 120.892 462.086 121.226C461.509 121.551 461.054 122.011 460.72 122.606C460.386 123.192 460.219 123.882 460.219 124.676V135.5H452.751Z" fill="white"/>
<defs>
<linearGradient id="paint0_linear_6328_1531" x1="0" y1="0" x2="604.091" y2="259.57" gradientUnits="userSpaceOnUse">
<stop stop-color="#171717"/>
<stop offset="1" stop-color="#262626"/>
</linearGradient>
<linearGradient id="paint1_linear_6328_1531" x1="223.922" y1="92.5002" x2="248.723" y2="80.8298" gradientUnits="userSpaceOnUse">
<stop stop-color="#D83333"/>
<stop offset="1" stop-color="#F041FF"/>
</linearGradient>
</defs>
</svg>
